/* XPM */
static char *_bae27002f4a4e4bda5a475f3e298dbbKdTaJMaODS713fYt[] = {
/* columns rows colors chars-per-pixel */
"64 64 239 2 ",
"   c #130F0D",
".  c #1A0F0D",
"X  c #0E120D",
"o  c #12110E",
"O  c #1B130C",
"+  c #1B1609",
"@  c #0F0F17",
"#  c #120F12",
"$  c #150E16",
"%  c #0E1112",
"&  c #101010",
"*  c #1B1110",
"=  c #270F01",
"-  c #250F05",
";  c #231203",
":  c #2B1403",
">  c #23150C",
",  c #25190C",
"<  c #2C1C0D",
"1  c #2B180A",
"2  c #321503",
"3  c #361C0A",
"4  c #3A1C05",
"5  c #281B10",
"6  c #2E230E",
"7  c #3C2205",
"8  c #3C240A",
"9  c #39260D",
"0  c #3A2511",
"q  c #421E04",
"w  c #401E0A",
"e  c #442403",
"r  c #492503",
"t  c #4C2903",
"y  c #42240A",
"u  c #4C2B0C",
"i  c #442A0B",
"p  c #542C02",
"a  c #592E01",
"s  c #522D09",
"d  c #553004",
"f  c #5E3103",
"g  c #543A0D",
"h  c #55350D",
"j  c #472C11",
"k  c #4A3111",
"l  c #543A11",
"z  c #623504",
"x  c #673B08",
"c  c #743E05",
"v  c #613C10",
"b  c #453924",
"n  c #52431A",
"m  c #6A450C",
"M  c #69430B",
"N  c #784607",
"B  c #6A4912",
"V  c #7B4912",
"C  c #7A5318",
"Z  c #69592E",
"A  c #78683D",
"S  c #864D07",
"D  c #84530C",
"F  c #8B550A",
"G  c #9C5B04",
"H  c #945A0C",
"J  c #9A5F0C",
"K  c #955504",
"L  c #8C5B14",
"P  c #865613",
"I  c #8F5512",
"U  c #A65E02",
"Y  c #98610E",
"T  c #976615",
"R  c #846019",
"E  c #A46203",
"W  c #AA6305",
"Q  c #A76809",
"!  c #B46502",
"~  c #BA6602",
"^  c #B46B03",
"/  c #BB6B01",
"(  c #B3690B",
")  c #BB7202",
"_  c #BE7803",
"`  c #B8750A",
"'  c #A66A16",
"]  c #AD7518",
"[  c #B67915",
"{  c #B16C11",
"}  c #9B7A2B",
"|  c #8E6E2C",
" . c #AD7C22",
".. c #C06C04",
"X. c #C37402",
"o. c #C37C04",
"O. c #CC7C02",
"+. c #C47C0C",
"@. c #CC7B07",
"#. c #D17E03",
"$. c #D97D08",
"%. c #C57C14",
"&. c #867341",
"*. c #B1821B",
"=. c #BA8727",
"-. c #BA9131",
";. c #CC8305",
":. c #C6820C",
">. c #CB820C",
",. c #CD880A",
"<. c #D58402",
"1. c #D98602",
"2. c #D58A05",
"3. c #DB8B03",
"4. c #D2840A",
"5. c #D48B0B",
"6. c #DA8C09",
"7. c #DA8609",
"8. c #DD9103",
"9. c #DC940C",
"0. c #D79106",
"q. c #C28314",
"w. c #CB8412",
"e. c #C98A17",
"r. c #D48D14",
"t. c #D48D17",
"y. c #CC9516",
"u. c #DD9412",
"i. c #DD9914",
"p. c #D89518",
"a. c #E28E06",
"s. c #E18C08",
"d. c #E39402",
"f. c #E69A04",
"g. c #EA9C03",
"h. c #E3950B",
"j. c #E39B0B",
"k. c #EB9E0A",
"l. c #EA9707",
"z. c #E39B14",
"x. c #E29B1A",
"c. c #D9A11B",
"v. c #EDA204",
"b. c #EEAA05",
"n. c #E5A10E",
"m. c #EDA30B",
"M. c #EEAB0D",
"N. c #F0A50B",
"B. c #F0A307",
"V. c #F1B209",
"C. c #E6A312",
"Z. c #ECA513",
"A. c #E7A916",
"S. c #EEAA14",
"D. c #EDAD1B",
"F. c #E5A71B",
"G. c #F1A614",
"H. c #F1AB14",
"J. c #F1AE1C",
"K. c #F2A71C",
"L. c #EEB415",
"P. c #EEB31D",
"I. c #EFBD1F",
"U. c #F1B315",
"Y. c #F2B31C",
"T. c #F2B918",
"R. c #EFB008",
"E. c #C99724",
"W. c #D79625",
"Q. c #CB9D34",
"!. c #CB902A",
"~. c #E19D21",
"^. c #DAA529",
"/. c #DEA531",
"(. c #CFA932",
"). c #E2A424",
"_. c #E7AA28",
"`. c #F2AF20",
"'. c #EEB423",
"]. c #EEBA26",
"[. c #EBB52D",
"{. c #EEBC2A",
"}. c #E5B62B",
"|. c #F1B323",
" X c #F1BA25",
".X c #F2BB2B",
"XX c #F2B42B",
"oX c #E6AE37",
"OX c #ECB936",
"+X c #F2BC31",
"@X c #F3BC3B",
"#X c #F5B734",
"$X c #EDC137",
"%X c #F2C334",
"&X c #F2C43A",
"*X c #F2C12F",
"=X c #C19545",
"-X c #D8A845",
";X c #DCBD4C",
":X c #D0B04C",
">X c #E7B944",
",X c #F3BA45",
"<X c #E4B353",
"1X c #DDB761",
"2X c #E6BB6B",
"3X c #DFC053",
"4X c #ECC340",
"5X c #EFCB4B",
"6X c #F2C542",
"7X c #F1C945",
"8X c #F1CA4B",
"9X c #F6C44B",
"0X c #EAC453",
"qX c #EBCB5B",
"wX c #EAC854",
"eX c #F2CD54",
"rX c #F3CE5B",
"tX c #F2C356",
"yX c #EED256",
"uX c #EED45A",
"iX c #F1D256",
"pX c #F2D35A",
"aX c #EBC668",
"sX c #F4CD67",
"dX c #F2D167",
"fX c #E9C774",
"gX c #F1CC76",
"hX c #F6D67B",
"jX c #EED171",
"kX c #F6DA89",
"lX c #F6DB97",
"zX c #E9D885",
"xX c #F9E297",
"cX c #F5DDA2",
"vX c #FBE6A7",
"bX c #F7EBB5",
"nX c #FCF3CB",
"mX c #FDF5D3",
"MX c #FCEDC1",
/* pixels */
"& & & & & & & & & & & & & & & & & & & & & & & & & & & & & & & & & & %   % & & & & & & & & & & & & & & & & & & & & & & & & & & & ",
"& & & & & & & & & & & & & & & & & & & & & & & & & & & & & & & & & & # X & & & & & & & & & & & & & & & & & & & & & & & & & & & & ",
"& & & & & & & & & & & & & & & & & & & # & &     & & & & o o & X o % X % o % X # o % & % & & & & & & & & & & & & & & & & & & & & ",
"& & & & & & & & & & & & & & & & & & & X & & % % + 6 n Z A &.A Z b 0 < > O &   o o @ & X & & & & & & & & & & & & & & & & & & & & ",
"o % & & & & & & & & & & & & & & & & & # & & + n } (.+X$X%X7X8XsXjX1X=X' H S v k > * % % & & & & & & & & & & & & & & & & & & & & ",
"X # & & & & & & & & & & & & & & % @ & X > B E.P.I. X X.X.X{..X*X$XwXhXlX1Xr.$.@.` H u * % % & & & & & & & & & & & & & & & & & & ",
"# & & & & & & & & & & & & & & & & & o 8 *.[.U.|. X X]. X X X.X.X{.+XOXyXxXlXQ.7.$.$.%.T 0 % o % & %   & & & & & & & & & & & & & ",
"X & & & & & & & & & & & & & & X X * g y.Y.L.Y.Y.Y.T.'.'.].].{.].*X{.$X+X4XlXbX<Xs.$.s.$.+.l o X @ % % & & & & & & & & & & & & & ",
"& & & & & & & & & & & & & & & X * M p.J.S.Y.H.L.L.P.P.I.].].].{.].*X*XI..X*XjXbXfXr.3.1.1.$.P , @ X % & & & & & & & & & & & & & ",
"& & & & & & & & & & & & & & & @ g ~.S.S.H.S.S.L.L.L.P.I.P. X XL.I.].].]..X.X%XjXnX2X6.1.1.1.4.T o % % & & & & & & & & & & & & & ",
"& & & & & & & & & & & &   o & 7 i.m.Z.S.S.S.D._.*.R C H H Q *.y.}.{.].]. X.X X%XhXmX1Xs.3.1.1.7.L O & X & & & & & & & & X & & & ",
"& & & & & & & & & & & & o o 1 *.N.Z.Z.G.H.C.{ x B } =X3XwXwX3XQ.| ] }.]..X X.X X.XzXmX^.s.3.3.3.4.P * X & & & & & & & & & & & & ",
"& & & & & & & & & & & &   & L Z.m.C.M.Z.W.D c } 3XdXuXuXuXuXuXuXrX-X .^.].]. X.X.XOXbXlXW.3.3.3.1.w.g @ & & & & & & & & & & & & ",
"& & & & & & & & & & & &   g h.B.v.m.Z.] z C :XuXuXpXuXuXyXuXuXuXyXyXaX-.E.'.]..X X{.0XmXfXh.d.3.3.3.[ < o # & & & & & & & & & & ",
"& & & & & & & & & & & & > [ B.B.v.b.[ s C 0XyXiXuXuXyXiXuXuXuXuXpXpXpXpX(.E.XXP.{.].].kXnXoXd.a.a.3.6.C # o X & & & & & & & & & ",
"& & & & & & & & & & &   h j.k.k.v.y.x C ;X5XeXeXqXrXrXuXyXwXwXyXpXpXpXpXsXQ.^.'.]. X].OXbXgXz.8.8.0.3.%.i # & & & & & & & & & & ",
"& & & & & & & & & X & o ] g.v.g.u.m B oX4X7X7X5X$XT f z N F L Q.pXpXpXuXuXsXQ.).].].].].sXbX).z.9.d.3.3.T o X % o % & o % & & & ",
"& & & & & & & & % % % g 8.g.g.g.Y z =.].+X*X+X&X&X .x x e.P.}.}.yXyXyXpXuXyXyXE.'.'.'.'.[.vX2Xz.x.j.8.6.r.0 o o & & & & & & & & ",
"& & & & & & & & X & + T v.g.g.5.N F D.S.'.'.'..X&Xp.^ ` F.L.T.}.yXqXuXeXrXyXpX>Xc.P.'.].|.jXlXF.C.9.8.0.6.C o X & o % & & & & & ",
"& & & & & & & & %   , u.f.f.f.Q c i.N.M.S.P.Y.L.&XW._ ) D.I.T.}.eXeXeXpXeXeXpXeX^.'.L.P.|.,XvX>Xi.9.8.0.6.*.+ X o % & & & & & & ",
"& & & & & & & & & % h j.g.g.6.S Y B.v.B.m.M.S.L.@XW.X.) A.T.L.'.7X8XeXeXeXeXiXiX;XF.I.P.'.OXkXaXi.i.0.2.2.,.k X X X & & o X # X ",
"& & & & & & & & % * L f.f.g.( S r.v.g.B.b.m.M.H.@Xp.) ) A.L.P.}.&X6X9X8X8X8XeX8X5Xp.D.L.`.|.tXhXp.u.9.2.2.2.C +   & & & % # % # ",
"& & & & & & & & & $ :.f.f.j.J S k.l.g.g.v.m.N.H.@Xt.) ) A.T.I.}.&X&X6X7X7X8XwX5XeXoX).L.J.Y.#XkX^.9.5.2.;.;.] + & @ & & & & & & ",
"X & & & & & & & % < 9.f.v.6.G ' g.g.g.g.g.v.B.m.+Xe.) ) A.L.L.'.&X&X&X&X7X7X7X5X8X8Xc.P.J.J.'.sX/.;.;._ *.o.` 9 #   & & & & & & ",
"& & & & & & & & & k m.k.g.>.K 4.g.f.g.g.g.v.v.m.+Xe.) ) A.L.L.F.+X%X%X&X&X&X6X6X7X7X^.D.H.Y.D.tXoX_ *._ _ ) ^ M #   & & & & & & ",
"& & & & & & & X & B k.k.k.@.K l.g.g.g.g.g.v.v.v.#X:.) ) A.L.L.P.{.]..X+X%X%X%X&X&X7X_.D.H.J.P.,X>X;._ _ ^ ^ Q B   # & & & & & & ",
"& & & & & & X % . ' v.k.m.@.( g.v.v.g.v.g.B.v.m.XXw./ ) m.V.U.C.'.'.].{.*X%X%X%X&X&X[.A.H.H.D.[.4X^ ^ E Q E E D * # X & & & & & ",
"& & & & & & X % O *.k.m.k.4.+.g.v.v.g.v.B.B.B.m.#X>.) ) C.V.U.C.'.P.'..X.X+X+X+X+X$XOXz.H.S.H.Y.&X^ ^ Q E E Y P O % & & & & & & ",
"& & & & & & X & > e.k.k.k.2.,.g.g.g.g.g.v.B.N.m.XX>.) ) Z.V.U.n.`.D.D.|.|.XX#X+X+XOX#XC.S.H.H.K.[.` E U E G G F O & & & & & & & ",
"& & & & & & &   , r.g.k.g.6.3.f.g.g.g.g.v.m.M.m.XXo./ ) m.V.U.C.D.D.'.'.|.|..X.X+X.X+Xn.S.H.S.H.F.` G G K K K N > & & & & & & & ",
"& & & & & & %   6 y.g.g.m.z.d.g.g.g.g.g.g.v.m.m.'.o./ ) m.R.L.C.'.D.`.'.`.|.|. X X X'.n.H.H.H.S.0.Q S S S N S N 5 % & & & & & & ",
"& & & & & & % & < r.g.g.S.D.h.d.d.l.l.g.g.g.g.m.J.o.^ ) n.M.H.C.`.|.J.|.J.|.|.|.|.|.|.n.H.H.S.S.2.G N N N c N m * % & & & & & & ",
"& & & & % o & X < r.d.f.D.XXg.8.d.d.d.d.d.f.f.v.S._ ^ ) n.R.S.C.`.|.`.'.D.`.`.D.P.`.'.C.H.H.S.L.;.S z z a f f d > % & & & & & & ",
"& & & & # # % % < ,.d.d._.#Xf.3.3.3.3.8.d.d.d.g.Z.) ! ^ n.R.S.A.`.J.`.'.|.D.`.`.`.D.|.C.J.H.H.S.` x r r r r r e O X %   & & & & ",
"& & & & X & % % 5 w.d.d._.9Xm.<.1.1.<.3.3.a.d.d.m.` W ^ 9.R.M.n.D.`.`.`.J.J.J.J.`.'.|.z.H.H.D.D.( z r r e e e 8 * o % % & & & & ",
"& & & & & & # % > ` a.d.x.rXF.1.<.<.<.3.<.3.3.8.j.` E ^ n.b.M.j.S.Z.Z.D.J.D.Y.J.Y.J.`.Z.D.J.J.D.Y p r y e e e 8 O o   % & & & & ",
"& & & & & & # X * Q 8.8.p.dX'.1.<.<.<.<.<.1.3.3.f.^ W ^ j.b.M.f.m.m.G.Z.S.S.J.J.K.J.`.Z.J.H.J._.F e 4 7 q e q 7 O   & & & & & & ",
"& & & & & & % & o L a.3.6.sX&X1.O.#.#.<.<.<.1.<.h./ W ^ j.b.N.h.f.k.k.k.G.G.K.K.K.J.S.S.H.H.H.p.N 2 2 2 2 2 2 :     & & & & & & ",
"& & & & & & % X   v 3.6.6.sXrX6.O.#.#.#.<.<.<.4.6./ W ^ j.b.N.0.d.d.f.l.k.Z.G.G.G.S.m.S.Z.H.J.e.z = = = = = = O X   & & & & & & ",
"& & & & &   % X   y 6.3.3.<XhXz.O.O.X.O.O.O.O.1.s./ W ! j.B.N.0.d.d.d.f.f.g.k.l.Z.H.j.H.Z.H.G.[ s ; ; = ; ; ; O % % & & & & & & ",
"& & & & & & & & & > +.1.3./.xXOXO.X.X.X.X.O.O.#.3.^ W ( j.v.v.3.3.3.3.d.d.d.d.f.k.k.l.S.Z.S.S.L r 2 : : : : ; . # % & & & & # X ",
"& & & & & & & & &   ' 1.2.r.lXsX#...X.X.X.X.X.O.1.^ W ! j.v.b.2.3.3.3.3.3.d.d.d.f.g.k.m.m.m.F.x t i i e e e 4 . # & & & & & % # ",
"& & & & & & & & & @ V 2.1.2.fXxXx...X...X.X.X.X.4.^ U ^ j.v.v.2.3.1.3.3.3.a.d.d.l.d.k.k.m.k.q.a r r r r r r y   # & & & & & o & ",
"& & & & & & & & & & 8 7.7.2.E.vX,XX./ / / ......;.( U ^ h.v.b.2.<.<.<.1.3.3.3.d.d.d.g.f.j.v.I r r e e e r e , & & & & & & & & & ",
"& & & & & & & & &   . [ 7.<.$.zXkXp./ / ../ / ..O.( U ^ 9.v.v.2.<.<.<.<.1.3.3.d.d.f.d.g.g.9.z y e e e e e 8 + & & & & & & & & & ",
"& & & & & & & & & X # S 4.1.1.W.bXtX%./ / ~ / / o.+.^ ^ j.v.v.7.O.O.<.<.<.1.3.3.d.d.g.d.l.[ q r r r r r r 9 & & & & & & & & & & ",
"& & & & & & & & &   $ w ` 1.;.<.2XvX/.) / ~ / ~ w.@XoXXXY.T.Y.5.O.O.<.<.<.<.3.d.d.d.f.f.h.N y t t t p t u , & & & & & & & & & & ",
"& & & & & & & & & $ & # D 7.<.7.W.cXjX,./ / ~ ! !.hXtX@X@X[.'.5.X.X.O.O.#.<.3.f.d.d.d.d.q.q r t p p a d i o & & & & & & & & & & ",
"& & & & & & & & & & X & 3 +.1.1.<.W.vX<Xr...~ ~ ! ! ( ` %.w.w.X.X.X.O.O.O.1.f.d.a.d.d.u.D 4 t p p p a p 3 # @ % # X & & & & & & ",
"& & & & & & & & & & & & # F 4.1.<.1.-XxX0X>.~ ! ! ~ / ~ / / ....X.X.X.o.2.k.3.d.d.s.a.[ q r a p p a a 8 * # @ o & & & & & & & & ",
"& & & & & & & & & & & & @ 0 ` 1.<.<.7.<XkXtX7./ ! ! ~ ~ ! / / / ..X.X.3.j.3.3.d.a.a.t.s 2 s a p p a s 5 #   & & & & & & & & & & ",
"& & & & & & & X & & & & # & v 4.#.<.<.1.W.gXjX}.+./ ~ ! / / / ^ ) O.z.h.8.3.3.a.s.d.I 2 u a f d d a < $ #   & & & & & & & & & & ",
"& & & & & & & & & & & &   @ > I 1.4.<.<.1.5.<XsX9XW.4.../ ) / +.z.x.f.3.3.3.3.3.3.%.4 w a d a d d i O % % X # % & & & & & & & & ",
"& & & & & & & & & & & & X   @ 1 { ;.<.<.7.7.3.5._.,X,X9X,X@XXXF.3.3.3.3.3.3.3.s.q.y 3 a d d a t 9 O % o & % X # & & & & & & & & ",
"& & & & & & & & & & & & & & & % 9 ` ;.<.<.<.<.<.1.<.<.3.1.1.1.3.1.3.3.3.3.6.6.%.r 2 s a d d f j + & & & & & o X & & & & & & & & ",
"& & & & & & & & & & & & & & X X O 8 Q <.<.<.<.<.4.<.<.<.1.1.2.<.1.1.3.1.3.6.%.f 3 s a a d d i ; & % & & & & % # & & & & & & & & ",
"& & & & & & & & & % & & & & & % X % 3 Y O.<.<.<.<.<.<.<.<.<.<.<.<.3.1.3.5.' q 4 a z z z z 8 o X & & & & & X & & & & & & & & & & ",
"& & & & & & & & % o & & & & & & # % % 1 N %.<.<.<.4.<.<.<.1.1.<.1.<.3.:.D 2 u x c M M g 6 O %   & & & & & & & & & & & & & & & & ",
"& & & & & & & & # X # & & & & & & o & # . y F ) O.<.4.4.<.<.1.4.2.%.H p t M N N V M 9   o X # % & & & & & & & & & & & & & & & & ",
"& & & & & & & & X # & & & & & & & & & # #   . 3 x D U Q U Q J D x z v m m M g 9 O   & & o X & & & & & & & & & & & & & & & & & & ",
"& & & & & & & & & & & & & & & & & & & & & & & &   > 3 y 4 8 8 4 6 < < ; + o o X & & & & & & & & & & & & & & & & & & & & & & & & ",
"& & & & & & & & & & & & & & & & & & & & & & & & # % % % % % X % & & & # & & % # & & & & & & & X & & & & & & & & & & & & & & & & ",
"& & & & & & & & & & & & & & & & & & & & & & & & #   o o *   o & & % & & & # # % & & & & & & & & & & & & & & & & & & & & & & & & ",
"& & X & & & & & & & & & & & & & & & & & & & & & & & & & & & & & & & & & & % %   & & & & & & & & & & & & & & & & & & & & & & & & "
};
