/* XPM */
static char *_5962489b7a54decce31fa5f9e7f4db5h4EifNTsJbFiiGRa[] = {
/* columns rows colors chars-per-pixel */
"64 64 168 2 ",
"   c black",
".  c #000600",
"X  c #005000",
"o  c #005600",
"O  c #001200",
"+  c #000900",
"@  c #006F00",
"#  c #48AA09",
"$  c #5CB80C",
"%  c #55B30B",
"&  c #077D01",
"*  c #001A00",
"=  c #91DD13",
"-  c #B8F818",
";  c #ABEF16",
":  c #0D8102",
">  c #0AA501",
",  c #0DB102",
"<  c #7BDF10",
"1  c #A0EE15",
"2  c #0CAD02",
"3  c #017C00",
"4  c #67CB0D",
"5  c #83E211",
"6  c #7FE011",
"7  c #1CB704",
"8  c #54CF0B",
"9  c #46C909",
"0  c #00AB00",
"q  c #26BB05",
"w  c #13B302",
"e  c #76DD0F",
"r  c #9EED15",
"t  c #67D60D",
"y  c #7ADA10",
"u  c #098001",
"i  c #B5F718",
"p  c #70DA0F",
"a  c #5CD20C",
"s  c #42C709",
"d  c #35C107",
"f  c #1AB603",
"g  c #91E813",
"h  c #B6F718",
"j  c #8FE713",
"k  c #51CD0B",
"l  c #59D10C",
"z  c #5ED20C",
"x  c #B2F617",
"c  c #37C207",
"v  c #71DA0F",
"b  c #61D40D",
"n  c #0EB102",
"m  c #B3F617",
"M  c #44C809",
"N  c #56CF0B",
"B  c #3CC408",
"V  c #6FDA0E",
"C  c #8AE512",
"Z  c #53CE0B",
"A  c #5AD10C",
"S  c #B4F618",
"D  c #65D60D",
"F  c #60D30C",
"G  c #5DD20C",
"H  c #38C307",
"J  c #B4F617",
"K  c #5BD10C",
"L  c #64D50D",
"P  c #5ED30C",
"I  c #2FBF06",
"U  c #B7F818",
"Y  c #A3EF15",
"T  c #49CA0A",
"R  c #57D00B",
"E  c #B2F517",
"W  c #2DBE06",
"Q  c #74DC0F",
"!  c #62D40D",
"~  c #05AD01",
"^  c #A9F216",
"/  c #47C909",
"(  c #57CF0B",
")  c #75DC0F",
"_  c #67D70D",
"`  c #5FD30C",
"'  c #67C00D",
"]  c #83D311",
"[  c #2FB006",
"{  c #3DB608",
"}  c #5EC40C",
"|  c #009C00",
" . c #26AC05",
".. c #13A402",
"X. c #54C00B",
"o. c #71CC0F",
"O. c #67C80D",
"+. c #7ACD10",
"@. c #097F01",
"#. c #000800",
"$. c #006300",
"%. c #006B00",
"&. c #007100",
"*. c #007800",
"=. c #007300",
"-. c #001700",
";. c #003300",
":. c #067C01",
">. c #148603",
",. c #078001",
"<. c #098101",
"1. c #0E8302",
"2. c #007E00",
"3. c #0A8201",
"4. c #128502",
"5. c #017E00",
"6. c #118502",
"7. c #088101",
"8. c #037F00",
"9. c #087E01",
"0. c #004D00",
"q. c #379E07",
"w. c #3DC108",
"e. c #4FC90A",
"r. c #00A800",
"t. c #55CB0B",
"y. c #99E714",
"u. c #06AA01",
"i. c #92E513",
"p. c #49C60A",
"a. c #18B203",
"s. c #49AB0A",
"d. c #3BA108",
"f. c #A7F116",
"g. c #40C608",
"h. c #92E813",
"j. c #A4F015",
"k. c #07AE01",
"l. c #4FCC0A",
"z. c #4FAF0A",
"x. c #6CD80E",
"c. c #3DC508",
"v. c #9FED15",
"b. c #60D40C",
"n. c #45C809",
"m. c #86E312",
"M. c #55CF0B",
"N. c #63D50D",
"B. c #ABF316",
"V. c #58D00C",
"C. c #73DB0F",
"Z. c #25BA05",
"A. c #85E311",
"S. c #8EE612",
"D. c #6ED90E",
"F. c #78DD10",
"G. c #18B503",
"H. c #B0F517",
"J. c #3AC408",
"K. c #9FEE15",
"L. c #4ECC0A",
"P. c #12B302",
"I. c #4ACA0A",
"U. c #7EE010",
"Y. c #0CB002",
"T. c #3AC308",
"R. c #25BB05",
"E. c #99EB14",
/* pixels */
"                                                                                                                                ",
"                                                                                                                                ",
"                                                                                                                                ",
"                                                                                                                                ",
"                                                                                                                                ",
"                                                                                                                                ",
"                                                                                                                                ",
"                                                                                                                                ",
"                                                                                                                                ",
"                                                                                                                                ",
"                                                                                                                                ",
"                                                                                                                                ",
"                                                                                                                                ",
"                        . X o o o o o o o o o o o o o o o o o o o o o o o o o o o o o o o o o o o o o o O                       ",
"                        + @ # $ $ $ $ $ $ $ $ $ $ $ $ $ $ $ $ $ $ $ $ $ $ $ $ $ $ $ $ $ $ $ $ $ $ $ % & *                       ",
"                        + @ = - - - - - - - - - - - - - - - - - - - - - - - - - - - - - - - - - - - ; : *                       ",
"                        + @ > , , , , , , , , , , , , , , , , , , , , , , < - - - - - - 1 , , , , , 2 3 *                       ",
"                        + @ 4 5 5 6 7 8 9 0 0 0 0 0 0 0 0 0 0 0 0 q 5 5 w e - - - - - - r 0 0 t 5 5 y u *                       ",
"                        + @ = - - i p a a s 0 0 0 0 0 0 0 0 0 0 0 d - - f e - - - - - - r 0 0 g - - ; : *                       ",
"                        + @ = - - h j k l z 0 0 0 0 0 0 0 0 0 0 0 d - - f e - - - - - - r 0 0 g - - ; : *                       ",
"                        + @ = - - x c v b n 0 0 0 0 0 0 0 0 0 0 0 d - - f e - - - - - - r 0 0 g - - ; : *                       ",
"                        + @ = - - - m M N 6 0 0 0 0 0 0 0 0 0 0 0 d - - f e - - - - - - r 0 0 g - - ; : *                       ",
"                        + @ = - - x B V b w 0 0 0 0 0 0 0 0 0 0 0 d - - f e - - - - - - r 0 0 g - - ; : *                       ",
"                        + @ = - - h C Z A l 0 0 0 0 0 0 0 0 0 0 0 d - - f e - - - - - - r 0 0 g - - ; : *                       ",
"                        + @ = - - S D F G H 0 0 0 0 0 0 0 0 0 0 0 d - - f e - - - - - - r 0 0 g - - ; : *                       ",
"                        + @ = - - J K L P I 0 0 0 0 0 0 0 0 0 0 0 d - - f e - - - - - - r 0 0 g - - ; : *                       ",
"                        + @ = - - U Y T R v 0 0 0 0 0 0 0 0 0 0 0 d - - f e - - - - - - r 0 0 g - - ; : *                       ",
"                        + @ = - - E W Q ! ~ 0 0 0 0 0 0 0 0 0 0 0 d - - f e - - - - - - r 0 0 g - - ; : *                       ",
"                        + @ = - - U ^ / ( ) 0 0 0 0 0 0 0 0 0 0 0 d - - f e - - - - - - r 0 0 g - - ; : *                       ",
"                        + @ = - - m k _ ` q 0 0 0 0 0 0 0 0 0 0 0 d - - f e - - - - - - r 0 0 g - - ; : *                       ",
"                        + @ = - - i p a a s 0 0 0 0 0 0 0 0 0 0 0 d - - f e - - - - - - r 0 0 g - - ; : *                       ",
"                        + @ ' ] ] ] ] [ { } | | | | | | | | | | |  .] ] ..X.] ] ] ] ] ] o.| | O.] ] +.@.*                       ",
"                        #.$.%.&.*.*.*.*.*.*.*.*.*.*.*.*.*.*.*.*.*.*.*.*.*.*.*.*.*.*.*.*.*.*.*.*.*.=.%.%.-.                      ",
"                              ;.:.>.>.,.<.1.2.2.2.2.2.2.2.2.2.2.3.>.4.5.6.>.>.>.>.>.7.2.8.>.>.>.9.0.                            ",
"                              ;.q.; ; w.e.y r.r.r.r.r.r.r.r.r.r.t.; y.u.i.; ; ; ; ; p.r.a.; ; ; s.0.                            ",
"                              ;.d.- - f.b g.h.0 0 0 0 0 0 0 0 0 a - j.k.r - - - - - l.0 f - - - z.0.                            ",
"                              ;.d.- - x.A t c.0 0 0 0 0 0 0 0 0 a - j.k.r - - - - - l.0 f - - - z.0.                            ",
"                              ;.d.- - Q K ! T 0 0 0 0 0 0 0 0 0 a - j.k.r - - - - - l.0 f - - - z.0.                            ",
"                              ;.d.- - v.b.n.m.0 0 0 0 0 0 0 0 0 a - j.k.r - - - - - l.0 f - - - z.0.                            ",
"                              ;.d.- - s M.5 0 0 0 0 0 0 0 0 0 0 a - j.k.r - - - - - l.0 f - - - z.0.                            ",
"                              ;.d.- - - N.d B.0 0 0 0 0 0 0 0 0 a - j.k.r - - - - - l.0 f - - - z.0.                            ",
"                              ;.d.- - K V.C.Z.0 0 0 0 0 0 0 0 0 a - j.k.r - - - - - l.0 f - - - z.0.                            ",
"                              ;.d.- - A.G N ! 0 0 0 0 0 0 0 0 0 a - j.k.r - - - - - l.0 f - - - z.0.                            ",
"                              ;.d.- - S.P k D.0 0 0 0 0 0 0 0 0 a - j.k.r - - - - - l.0 f - - - z.0.                            ",
"                              ;.d.- - Z R F.G.0 0 0 0 0 0 0 0 0 a - j.k.r - - - - - l.0 f - - - z.0.                            ",
"                              ;.d.- - H.! J.K.0 0 0 0 0 0 0 0 0 a - j.k.r - - - - - l.0 f - - - z.0.                            ",
"                              ;.d.- - L.( < P.0 0 0 0 0 0 0 0 0 a - j.k.r - - - - - l.0 f - - - z.0.                            ",
"                              ;.d.- - K.F n.m.0 0 0 0 0 0 0 0 0 a - j.k.r - - - - - l.0 f - - - z.0.                            ",
"                              ;.d.- - x.A t c.0 0 0 0 0 0 0 0 0 a - j.k.r - - - - - l.0 f - - - z.0.                            ",
"                              ;.d.- - Q K ! T 0 0 0 0 0 0 0 0 0 a - j.k.r - - - - - l.0 f - - - z.0.                            ",
"                              ;.d.- - K.F n.m.0 0 0 0 0 0 0 0 0 a - j.k.r - - - - - l.0 f - - - z.0.                            ",
"                              ;.d.- - I.N U.Y.0 0 0 0 0 0 0 0 0 a - j.k.r - - - - - l.0 f - - - z.0.                            ",
"                              ;.d.- - H.! T.K.0 0 0 0 0 0 0 0 0 a - j.k.r - - - - - l.0 f - - - z.0.                            ",
"                              ;.d.- - K V.C.R.0 0 0 0 0 0 0 0 0 a - j.k.r - - - - - l.0 f - - - z.0.                            ",
"                              ;.d.- - A.G N ! 0 0 0 0 0 0 0 0 0 a - j.k.r - - - - - l.0 f - - - z.0.                            ",
"                              ;.d.- - S.P k D.0 0 0 0 0 0 0 0 0 a - j.k.r - - - - - l.0 f - - - z.0.                            ",
"                              ;.d.- - K V.C.Z.0 0 0 0 0 0 0 0 0 a - j.k.r - - - - - l.0 f - - - z.0.                            ",
"                              ;.d.- - B.b c.E.0 0 0 0 0 0 0 0 0 a - j.k.r - - - - - l.0 f - - - z.0.                            ",
"                              ;.d.- - I.N U.Y.0 0 0 0 0 0 0 0 0 a - j.k.r - - - - - l.0 f - - - z.0.                            ",
"                              ;.d.- - f.b g.h.0 0 0 0 0 0 0 0 0 a - j.k.r - - - - - l.0 f - - - z.0.                            ",
"                              ;.d.- - x.A t c.0 0 0 0 0 0 0 0 0 a - j.k.r - - - - - l.0 f - - - z.0.                            ",
"                              ;.d.- - Q K ! T 0 0 0 0 0 0 0 0 0 a - j.k.r - - - - - l.0 f - - - z.0.                            ",
"                              ;.d.- - v.b.n.m.0 0 0 0 0 0 0 0 0 a - j.k.r - - - - - l.0 f - - - z.0.                            ",
"                              ;.d.- - s M.5 0 0 0 0 0 0 0 0 0 0 a - j.k.r - - - - - l.0 f - - - z.0.                            "
};
