/* XPM */
static char *d8e258dbf2b94ceefc2e53c77a3f2e30qfFjFDLJ5dhghOtY[] = {
/* columns rows colors chars-per-pixel */
"64 64 223 2 ",
"   c #000000",
".  c #0C0A02",
"X  c #0D060C",
"o  c #0D080C",
"O  c #090701",
"+  c #1A1503",
"@  c #191505",
"#  c #0A1818",
"$  c #1D1C1D",
"%  c #191812",
"&  c #100D09",
"*  c #211C09",
"=  c #231C02",
"-  c #221B17",
";  c #362D0B",
":  c #3A310D",
">  c #3D3206",
",  c #2A2613",
"<  c #342F19",
"1  c #3E3510",
"2  c #36321D",
"3  c #2E2604",
"4  c #0A1B28",
"5  c #121D27",
"6  c #2B1528",
"7  c #371B33",
"8  c #361F2E",
"9  c #2D2A2D",
"0  c #30212E",
"q  c #3A2237",
"w  c #343733",
"e  c #3E3A2F",
"r  c #493B05",
"t  c #473C13",
"y  c #411E3C",
"u  c #413B22",
"i  c #39452E",
"p  c #5A4A06",
"a  c #4E4315",
"s  c #584B17",
"d  c #685408",
"f  c #6D5D1C",
"g  c #675715",
"h  c #72611E",
"j  c #7B6508",
"k  c #524B2B",
"l  c #574F30",
"z  c #6D5531",
"x  c #70663E",
"c  c #776B3B",
"v  c #766729",
"b  c #143851",
"n  c #4A1F4B",
"m  c #452841",
"M  c #4D2948",
"N  c #593454",
"B  c #4B3C4A",
"V  c #652C5E",
"C  c #633A5D",
"Z  c #693162",
"A  c #683B62",
"S  c #75356D",
"D  c #773C6F",
"F  c #7D3B74",
"G  c #6D2B64",
"H  c #17425E",
"J  c #1B4E70",
"K  c #335B6A",
"L  c #575357",
"P  c #795E57",
"I  c #624353",
"U  c #7D7245",
"Y  c #776C42",
"T  c #4D466C",
"R  c #7D4577",
"E  c #6F526B",
"W  c #496661",
"Q  c #7A7479",
"!  c #70686F",
"~  c #9B7E09",
"^  c #836E14",
"/  c #8B730E",
"(  c #835D2A",
")  c #8A7625",
"_  c #917C27",
"`  c #867638",
"'  c #E24839",
"]  c #E46034",
"[  c #E6732C",
"{  c #803A77",
"}  c #877B4B",
"|  c #8B6B58",
" . c #854E7D",
".. c #80507A",
"X. c #81767F",
"o. c #A8587B",
"O. c #ED7B71",
"+. c #9E810C",
"@. c #9A811E",
"#. c #A6870A",
"$. c #B8960B",
"%. c #AA8C10",
"&. c #9C8428",
"*. c #A48C2C",
"=. c #AE952C",
"-. c #B49A2F",
";. c #AB9739",
":. c #AB9138",
">. c #BBA133",
",. c #C49F0C",
"<. c #C69A17",
"1. c #CCA60C",
"2. c #CAA716",
"3. c #D9B217",
"4. c #DBB20E",
"5. c #E6BB0E",
"6. c #E3BB1C",
"7. c #CAAC34",
"8. c #C4A733",
"9. c #CFB236",
"0. c #D5B536",
"q. c #CCAE2C",
"w. c #E1BE2E",
"e. c #ECC00F",
"r. c #F1C40F",
"t. c #F1C514",
"y. c #F2C71A",
"u. c #DFC23B",
"i. c #F3C923",
"p. c #F3CB2B",
"a. c #E2C13B",
"s. c #EDCA3D",
"d. c #E6C53A",
"f. c #F3CD33",
"g. c #F3CE3A",
"h. c #F5D03E",
"j. c #F9D53F",
"k. c #8F8351",
"l. c #9A8C54",
"z. c #92844A",
"x. c #A7995C",
"c. c #AC9A42",
"v. c #AC9D61",
"b. c #BCAB68",
"n. c #B4A364",
"m. c #A4B27E",
"M. c #B7AE51",
"N. c #E99E5B",
"B. c #E3AA5B",
"V. c #C6B46D",
"C. c #D0BD73",
"Z. c #DC9763",
"A. c #F6D241",
"S. c #FAD541",
"D. c #FAD746",
"F. c #F5D658",
"G. c #EFCE4C",
"H. c #D6C376",
"J. c #DFCB7B",
"K. c #DAC678",
"L. c #E1CD7C",
"P. c #E5D07E",
"I. c #F6DA69",
"U. c #1E5F88",
"Y. c #22628E",
"T. c #2A7DB5",
"R. c #3178A9",
"E. c #94468B",
"W. c #8A5182",
"Q. c #95578D",
"!. c #9C4A90",
"~. c #91508A",
"^. c #A94C9C",
"/. c #A6569A",
"(. c #A5609C",
"). c #B552A7",
"_. c #B756AB",
"`. c #AD65A5",
"'. c #B569AA",
"]. c #C9738E",
"[. c #CA5CBB",
"{. c #C45CB6",
"}. c #CD63BE",
"|. c #C66BBA",
" X c #C673BB",
".X c #CB73BA",
"XX c #D072B2",
"oX c #D05EC0",
"OX c #CF68C0",
"+X c #D06AC2",
"@X c #CC76C0",
"#X c #D274C5",
"$X c #D37AC6",
"%X c #D47CC8",
"&X c #D87FCC",
"*X c #2E85BF",
"=X c #63939F",
"-X c #5992AE",
";X c #6198B6",
":X c #50A0AA",
">X c #308CC9",
",X c #3396D8",
"<X c #2F8BC8",
"1X c #489ACF",
"2X c #4FA3DC",
"3X c #79B1D0",
"4X c #808080",
"5X c #999999",
"6X c #958593",
"7X c #B2BB9B",
"8X c #A9A9A9",
"9X c #A3A3A3",
"0X c #BABABA",
"qX c #B7A2B4",
"wX c #8DAF9B",
"eX c #A2BBC8",
"rX c #C2C2C2",
"tX c #CBCBCB",
"yX c #D6D6D6",
"uX c #ECECEC",
"iX c #E4E4E4",
"pX c #FDFDFD",
"aX c #F3F3F3",
/* pixels */
"                                                                                                                                ",
"                                                                                                                                ",
"                                                                                                                                ",
"                                                                                                                                ",
"                                                                                                                                ",
"                                                                                                                                ",
"                                                        . +   + = +   + .                                                       ",
"                                                        d ~   $.1.~ = $.p                                                       ",
"                                                      Y.=X7X$.[ N.B.-.7X=Xb                                                     ",
"                                                      <X1XwXr.] O.N.a.3X2XJ                                                     ",
"                                                      *X,X:X5.] ' [ 9.1X,XJ                                                     ",
"                                                                $.$.                                                            ",
"                                                      *.;.c.=.=.^ g =.=.k &                                                     ",
"                                                    ) s.g.f.p.p.$.#.p.g.>._ f &                                                 ",
"                                                @ , j.g.p.r.r.r.i.y.t.g.A.g.8.r O                                               ",
"                                              5 } I.r.r.t.y.g.A.F.F.5.y.F.I.F.G.;                                               ",
"                                            A.F.G.t.r.g.h.h.h.h.j.f.r.r.t.p.g.s.;                                               ",
"                                        ; $.i.d.p.r.p.h.h.h.A.h.g.g.p.t.t.y.p.g.>.-._                                           ",
"                                @ g s p ^ r.r.r.t.y.f.f.f.g.f.f.f.f.p.t.t.5.y.f.h.h.8.                                          ",
"                                1 9.A.i.r.t.r.r.i.f.r.t.p.f.y.y.t.r.r.r.y.y.y.y.f.w.#.                                          ",
"                                O * 8.i.t.A.t.r.r.r.r.g.h.h.h.h.y.t.r.t.f.h.j.g.j._ +                                           ",
"                                1 9.s.i.y.g.f.f.i.r.f.A.-.a a a.g.p.t.p.g.*.) d.h.a.*.                                          ",
"                                * h 0.f.p.i.g.F.h.r.h.) ` k.k.` 7.g.p.g.*.` z.} 0.A.7.                                          ",
"                                    &.a.f.y.g.F.A.y.j.; x P.P.l *.7.7.7.v Y l.u 0.w.*.                                          ",
"                                    . &.d.a.h.s.u.a.j.; x J.J.K.Y < < u x.} , = ,.^ O                                           ",
"                                      ; a a S.&.a a S.1 Y J.J.J.V.b.b.b.H.C.z.- r 3                                             ",
"                                        3 #.h / d   S.: Y J.L.} b.L.J.K.l.x.n.%                                                 ",
"                                      r / t.d 1.~   S.) ` l.P.2 v.L.J.H.l x n.-                                                 ",
"                                      #.e.r.r.5.) # a.g.&.e P.k x.L.L.C.c } x., = @                                             ",
"                                O & & %.r.r.t./ K >X, 3.~ u L.C.K.K.J.L.H.H.v.< ,.^                                             ",
"                                > 1.1.5.r.r.; K <X,X*Xi v V.K.J.U < k K.P.} K R.i =                                             ",
"                                r r.r.r.r.r.d W T.,XU.T | l.J.J.l.z ` H.v.u b <X4                                               ",
"                                t 2.,.5.t.t.1.p H T.  /. .N n.V.b.b.V.v.P y T R.4                                               ",
"                                o 9 % #.r.e.o o o o o X V !.X X o o . - ~.&X(.6                                                 ",
"                                > 3.q.6.4.> `.^.^.^.^.^.{ y ^.^.^.o.#.,.h { }.^.6                                               ",
"                                @ p w._ z Q.%X#X#X#XXX{.{. .y {.Z.Z.7XwXc.h R |./.N                                             ",
"                                  O 8.f y &X&X%X$X&X$X}.|.!.  _.B.a.eX;XM.j M @X#XR                                             ",
"                                  O 8.f 7 &X%X%X$X$X$X&X$X/.& ).Z.c.;X;Xx.d M |.}.S                                             ",
"                                  O 8.f 7 oX$X&X&X&X&X&XW.8 XX.X.X].1.1.].Z M  XOXS                                             ",
"                                  O 8.7.*.M }.}.}.}.&XA 8 0 $X%X&X.Xo.].{.Z B qXA 6                                             ",
"                                    h 0.G._ S S S S R Q Q Q R |.#X$X}.{.E.E 5XrX9                                               ",
"                                      &.d.h.@ @ = *   rXyX9X% ^.+X%X&X_.m ! tXtX9                                               ",
"                                        t j.S.S.D.D.  iXpXaXyX9 E.+X&X.XN 4XuXtX9                                               ",
"                                  O $.5.5.r.t.f.:.w   rXiXpXpXtXE 7 OX@XN 4XrXw .                                               ",
"                              1 ) _ 3.r.r.r.p.>.| W.S Q 8XiXpXuX5XQ D ..6X0X0X$                                                 ",
"                              a 8.A.i.t.t.y.;.| E.[.[.V E 8XuXpXuX0XL L 9XrX9X$                                                 ",
"                                a j.h.i.y.j.# W.[.{.[.[.{ w yXpXpXaXtXrXL ! 9X$                                                 ",
"                                O * 7.j.0.w $X}.[.[.[.[.[.!.% eXuXpXpXpXyXQ N ).6                                               ",
"                                    1 a z ).%X#X+X{.oX{.[._.^.I 0XiXpXpXaXyX5XN (.N                                             ",
"                                        7 oX%X%X#XOX[.[.[.{.oXG Q 9XuXuXuXrX(.A '.R                                             ",
"                                        6 ^.`.|.&X&XoX}.OX[.[.[.V B 8X8X8X! Z {.'.A                                             ",
"                                          o o W.@X'.$X$X+X[.[.OXoX/.6 0 0 E OX'.B $                                             ",
"                                              8 m m &X%X$X#X#X#X#X@X`.'.'.'.'.I 6 o                                             ",
"                                                    A A Q.%X%X&X%X%X%X$XQ.C N $ O                                               ",
"                                                        m W.W.W.W.W.W. .q                                                       ",
"                                                          o o o o o o o O                                                       ",
"                                                                                                                                ",
"                                                                                                                                ",
"                                                                                                                                ",
"                                                                                                                                ",
"                                                                                                                                ",
"                                                                                                                                ",
"                                                                                                                                ",
"                                                                                                                                "
};
