/* XPM */
static char *_a1c95fd192945d7fca8be506133a4f8dKGCj0PaUwpBAnzi[] = {
/* columns rows colors chars-per-pixel */
"64 64 229 2 ",
"   c #000000",
".  c #0A0403",
"X  c #0D0C0B",
"o  c #07060A",
"O  c #130002",
"+  c #130E0A",
"@  c #180705",
"#  c #1C110B",
"$  c #15120E",
"%  c #0B0B19",
"&  c #1B1818",
"*  c #101019",
"=  c #2D0005",
"-  c #240004",
";  c #340006",
":  c #320E09",
">  c #3C0007",
",  c #281C14",
"<  c #381F16",
"1  c #2D140E",
"2  c #2B231C",
"3  c #372316",
"4  c #3C2819",
"5  c #0B1328",
"6  c #0C1733",
"7  c #111936",
"8  c #272525",
"9  c #362C23",
"0  c #3A3837",
"q  c #430008",
"w  c #4E040B",
"e  c #54000A",
"r  c #471418",
"t  c #63000B",
"y  c #68020C",
"u  c #7C010D",
"i  c #77000D",
"p  c #6D0B13",
"a  c #442A1B",
"s  c #4B301E",
"d  c #7F2A02",
"f  c #5B1B3F",
"g  c #573823",
"h  c #4D3B33",
"j  c #653F27",
"k  c #554538",
"l  c #4D4033",
"z  c #68462C",
"x  c #774F32",
"c  c #6F4D3C",
"v  c #061D41",
"b  c #06234C",
"n  c #0A2652",
"m  c #182858",
"M  c #27385F",
"N  c #0B387A",
"B  c #0D316A",
"V  c #7D204C",
"C  c #533575",
"Z  c #773172",
"A  c #3A627A",
"S  c #20617E",
"D  c #15536D",
"F  c #464443",
"G  c #575858",
"H  c #5F534B",
"J  c #765C4B",
"K  c #69544D",
"L  c #52536A",
"P  c #6E5473",
"I  c #676468",
"U  c #71676A",
"Y  c #7C7979",
"T  c #726B71",
"R  c #62695F",
"E  c #990012",
"W  c #870312",
"Q  c #A40014",
"!  c #B20115",
"~  c #BF0017",
"^  c #B9130F",
"/  c #802B02",
"(  c #8A3210",
")  c #B31728",
"_  c #CE0219",
"`  c #C90417",
"'  c #D20017",
"]  c #DA0019",
"[  c #D50219",
"{  c #E4001A",
"}  c #EB011C",
"|  c #F3011D",
" . c #FF001F",
".. c #D41725",
"X. c #CC0D2A",
"o. c #FD0822",
"O. c #FB1527",
"+. c #F61F2E",
"@. c #FE2835",
"#. c #FF353F",
"$. c #E62432",
"%. c #D2382B",
"&. c #8D5B38",
"*. c #855837",
"=. c #9D5131",
"-. c #B7413B",
";. c #96613C",
":. c #9C653F",
">. c #CF5128",
",. c #871F48",
"<. c #BA1B48",
"1. c #802759",
"2. c #892D6A",
"3. c #A72054",
"4. c #FF3440",
"5. c #9C5E48",
"6. c #996742",
"7. c #846A55",
"8. c #8B725B",
"9. c #946D57",
"0. c #A46C43",
"q. c #A96C47",
"w. c #AC7046",
"e. c #AC7348",
"r. c #B47A4C",
"t. c #BB7D4E",
"y. c #B2744A",
"u. c #BD7D53",
"i. c #AA6E4D",
"p. c #947866",
"a. c #B55447",
"s. c #FB595D",
"d. c #F14F53",
"f. c #D66755",
"g. c #D45A60",
"h. c #FF5863",
"j. c #D87564",
"k. c #F46B6C",
"l. c #7F915B",
"z. c #B8B628",
"x. c #C3BC1A",
"c. c #E3DB1C",
"v. c #C9C82F",
"b. c #F1E71E",
"n. c #BE8151",
"m. c #AF9074",
"M. c #B7987B",
"N. c #A8886D",
"B. c #9CA94C",
"V. c #C38453",
"C. c #CB8A57",
"Z. c #D08E59",
"A. c #D4915B",
"S. c #D49A79",
"D. c #FF8C75",
"F. c #0A3E86",
"G. c #373E87",
"H. c #573E89",
"J. c #004393",
"K. c #014699",
"L. c #00489D",
"P. c #1A468D",
"I. c #264C88",
"U. c #325B9B",
"Y. c #306A95",
"T. c #004BA3",
"R. c #004EAA",
"E. c #084EAA",
"W. c #0050AF",
"Q. c #1859AD",
"!. c #0053B4",
"~. c #0A56B2",
"^. c #1C55AF",
"/. c #264FA4",
"(. c #1B60A5",
"). c #386DB3",
"_. c #4C7A90",
"`. c #F97C82",
"'. c #2F8DB2",
"]. c #5F838D",
"[. c #299DCA",
"{. c #6EBDDA",
"}. c #918C88",
"|. c #938E8E",
" X c #B7A8A9",
".X c #B9B6B6",
"XX c #A4A8A9",
"oX c #9C91A7",
"OX c #FA9790",
"+X c #CAA585",
"@X c #CAA686",
"#X c #D2AC8A",
"$X c #D7B28F",
"%X c #D7B393",
"&X c #E5BD98",
"*X c #F3AE8C",
"=X c #D3BCAA",
"-X c #C0BEBE",
";X c #CBB9A7",
":X c #EDB7B8",
">X c #FFA8AB",
",X c #C88D84",
"<X c #ECC39D",
"1X c #F7C49C",
"2X c #F6CBA4",
"3X c #F9CEA6",
"4X c #F5CEAA",
"5X c #FCD0A7",
"6X c #FFD2A9",
"7X c #F7D2AF",
"8X c #F8D6B5",
"9X c #EAC8AC",
"0X c #B4CCCF",
"qX c #9DDCF5",
"wX c #CAC8C8",
"eX c #D3D3D3",
"rX c #DCDCDB",
"tX c #D3CCC3",
"yX c #FDC7C8",
"uX c #FFD7D7",
"iX c #FFDFC5",
"pX c #FFE5D0",
"aX c #E3E2E2",
"sX c #EDECEC",
"dX c #FCE9EA",
"fX c #FFFFFF",
"gX c #F5F3F3",
"hX c #F0F2F6",
"jX c #D8F2FC",
/* pixels */
"                                                                                                                                ",
"                                              = Q [ } { ` u .                                                                   ",
"                                            E  . . .@.>XuXyXk.y                                                                 ",
"                                        O ' o. . . .>XdX4.h.O.OXu                                                               ",
"                                      @ ]  . .o. . .>XuX4.yX8Xh.s.e                                                             ",
"                                    . ~  . . . . . .s.uX#.fXfX>X`._ t e -                                                       ",
"                                    u  .o. . . . . . .k.yXyXg...' ' ' ' ' W O                                                   ",
"                                  =  . . . . . . . . . .$.[ [ ' ' ' ' ' ' ' W                                                   ",
"                                  ! o. . . . . . . .o.] [ X._ _ ' ' ' ' ' ' !                                                   ",
"                                =  . . . . . . .o. .] [ ..%.%.%._ ' _ ' ' ' E                                                   ",
"                                W  . . . .o. . . .] ! a.+X#X#X#XS.) ` ' ' ' y                                                   ",
"                                ' o. . . . . . .{ u .   , m.#X#X@X# w ' ' ! O                                                   ",
"                              q  . . . . . . .} f.9 9 J 8.l @X#X@X8.N.` ` ;                                                     ",
"                              u  . . . . . .| j.#X8.@X%X=X%X@X#X#X;X=X-.;                                                       ",
"                              Q  . .o. . . .j.#X$X$X%XtX0XrX=X#X#X].XX@XM.M.J $                                                 ",
"                            t |  . . . . .f.<X1X3X6X8X{.'.qXgX7X<X@X4X7X6X2X$XN..                                               ",
"                          q |  . . . . .` u.6X6X6X6X7XY.X '.fX8X6X6X5X5X3X%X#X#Xk     o   o                                     ",
"                          !  . . . . .| / ( 1X6X6X6X5X].* D jXpX6X5X5X3X$X#X#X#X7.  0 0 l 0 .                                   ",
"                          _ o. . . . ./ / / ( $X6X6X5X0XS [.jXiX6X6X&X#X#X#X#X#XJ T rXfXfXfXaXXX0                               ",
"                          E  .@.D.*Xf.d / / / w.6X5XM.8 G }.M.m.$X#X#X#X#X#X@X+X}.eXrXfXfXfXfXfXsXY +                           ",
"                          = +.1X6X6X6XS./ / / *X6X6X+X          $ p.$X#X+X#XS.H eXeXrXfXfXfXfXfXfXfXXX                          ",
"                            7.6X6X6X6X6Xq./ ( 5X6X6X2Xk .           & k H 9   8 eXeXeXsXfXfXfXfXfXfXrXo                         ",
"                            J 6X6X6X6X6X7X=.y.6X6X6X6X6X3X%X&   . .     * @ @X* .XeXeXeXfXfXfXfXfXfXhX$                         ",
"                            9 3X6X5X6X6X5X6X6X6X6X6X6X6X6X6X&Xs J c @ 1 @X4X@Xl.eXeXeXeXrXfXfXfXfXfXgX8                         ",
"                              m.6X5X6X6X6X6X6X6X6X6X6X6X6X6X5Xa : : : a &X5XK }.eXeXeXeXeXgXfXfXfXfXgX8                         ",
"                              + m.5X6X6X8X2X6X6X6X6X6X6X6X6X5X9.: : ; 7.5X#XX , .XeXeXeXeXgXfXfXfXfXgX&                         ",
"                                . k p.N.n.d S.6X6X6X6X6X6X6X6X<Xg < a $X5Xl     8 .XeXeXeXgXfXfXfXfXgX8                         ",
"                                  O > t ^ ^ ^ k.*X X=X4X6X6X6X6X6X$X&X6X8.        X eXeXeXsXfXfXfXfXfX0                         ",
"                              - E {  . . . . . . .<./.).oX9X1X6X5X5X5X,XW y e e > @  XtXeXgXfXfXfXfXwXo                         ",
"                            q {  . . . . . . . . . .X.^.!.Q.oX*X*X*Xs.C C ) [ [ ' ` ' g.:XdXgXdXuXOXr                           ",
"                          ; } o. . . . . . .o. . . . .3.!.!.!.Z o. .o. .<.G.,.[ ' ' ' ' ] o.O.O. .{ O                           ",
"                        . [  . . . . .o. . . . . . . . .H.!.~.).P 2.2.Z H.P.J.5.%.' ' ' '  .o. . .!                             ",
"                        Q  . . . . .| } { { { { { { {  .<.~.v.c.z._.!.!.!.T.J.Y.c.>.` _ _ {  . . .t                             ",
"                    o p  . . . . .} ' ' ' ' ' ' ' ' ' [ 2.Y.b.c.x.N.!.!.!.L.J.J.R x._ [ [ _ |  .[ O                             ",
"                  F rX@. . . . .| ' ' ' ' ' ' ' ' ' ' X./.~.B.v.z.Y.!.!.W.J.J.J.J.A ' ' ' ' ' } t                               ",
"                  wXfXh. . . . .' ' ' E = @ f ` ' ' [ C !.!.!.(.W.W.!.!.L.J.J.J.J.J.V ' ' [ ` e                                 ",
"                  .XfXdXd. . .{ ' ' ! O     m X.' ] Z !.!.!.!.!.!.!.!.W.J.J.J.J.J.J.F.; ; - O                                   ",
"                & sXfXfXdX`.O.' ' ..K       5 H.V I.!.!.!.!.!.!.!.!.!.L.J.J.J.J.J.J.J.%                                         ",
"                Y fXfXfXfXfXdX:X:XdX|..     o E.!.!.!.!.!.!.!.!.!.!.W.T.W.W.W.R.T.J.K.v       + 3 a 3 X                         ",
"              X sXfXfXfXfXfXfXfXfXfXh         B !.!.!.!.!.!.!.!.!.!.!.!.!.!.!.!.!.!.T.m   # j &.&.&.&.&.s                       ",
"              0 fXfXfXfXfXfXsXaXaXeXF         7 !.!.!.!.!.!.!.!.!.!.!.!.!.!.!.!.!.!.!.K.& *.&.&.&.&.&.&.&.g                     ",
"              I fXfXfXfXfXfXfXrXeXeX|.        6 !.!.!.!.!.!.!.!.!.!.!.!.!.!.!.!.!.!.!.!.I &.&.&.&.&.&.&.&.&.s                   ",
"              I fXfXfXfXfXfXfXsXeXeX.X        7 !.!.!.!.!.!.!.!.!.!.!.!.!.!.!.!.!.!.!.~.5.*.&.&.&.&.;.t.Z.C.y.#                 ",
"              $ sXfXfXfXfXfXfXhXeXeXwX        v !.!.!.!.!.!.!.!.!.!.!.!.!.!.!.!.!.!.!.U.;.&.&.&.&.:.Z.A.A.A.A.*.                ",
"                T fXfXfXfXfXfXaXeXeX.X        b !.!.!.!.!.!.!.!.!.!.!.!.!.!.!.!.!.!.!.8.6.*.&.&.;.C.A.A.A.A.A.n..               ",
"                o .XfXfXfXfXaXeXeXeXG         n !.!.!.!.!.!.!.!.!.!.!.!.!.!.!.!.!.!.~.w.6.&.&.&.t.A.A.A.A.A.A.C.+               ",
"                  $ |.fXsXeXeXwX|.G           b !.!.!.!.!.!.!.!.!.!.!.!.!.!.!.!.!.!.U.w.0.&.&.0.A.A.A.A.A.A.A.n..               ",
"                    . G wXeXwXI               % !.!.!.!.!.!.!.!.!.!.!.!.!.!.!.!.!.!.T y.q.:.&.t.A.A.A.A.A.A.A.*.                ",
"                        F T 0 .       + 4 3 3 # N !.!.!.!.!.!.!.!.!.!.!.!.!.!.!.!.!.9.w.w.w.;.Z.A.A.A.A.A.A.Z.2                 ",
"                                    4 r.t.w.q.U N ~.!.!.!.!.!.!.!.!.!.!.!.!.!.!.!.~.w.w.w.w.r.A.A.A.A.A.A.A.*.                  ",
"                                  + V.y.w.6.I.J.J.K.E.!.!.!.!.!.!.!.!.!.!.W.!.!.!.^.w.w.w.w.C.A.A.A.A.A.A.e.+                   ",
"                                  z n.w.w.P.J.J.J.J.J.L.R.W.!.!.!.!.W.R.K.J.N !.!.U.w.w.w.y.A.Z.Z.Z.V.V.:.+                     ",
"                                  0.e.w.U J.J.J.J.J.J.J.J.J.K.K.K.K.J.J.J.N o n !.U.e.e.w.n.n.r.r.r.r.r.#                       ",
"                                  V.w.w.I.J.J.J.J.J.J.J.J.J.J.J.J.J.J.J.K.7     N /.w.e.w.C.A.A.A.A.A.V.+                       ",
"                                  x q.i.F.K.J.J.J.J.J.J.J.J.J.J.J.J.J.J.B       5 ~.w.w.y.Z.A.A.A.A.A.x                         ",
"                                3 q.q.i.K.F.J.J.J.J.J.J.J.J.J.J.J.J.K.B o         5 c w.t.A.A.A.A.A.6..                         ",
"                              # w.w.w.i.F.K.J.J.J.J.J.J.J.J.J.J.J.J.B o             X *.t.Z.A.A.A.6.#                           ",
"                              *.t.w.w.q.J.J.J.J.J.J.J.J.J.J.J.J.F.7                   . 3 x e.0.z .                             ",
"                            # n.w.w.q.0.I.J.J.J.J.J.K.J.J.J.F.n %                           . .                                 ",
"                            a V.w.w.w.0.L J.J.J.J.J.F.B n 5 o                                                                   ",
"                            s t.w.w.w.0.&.I.J.K.J.M o                                                                           ",
"                            # q.w.w.w.0.&.&.L L J s                                                                             ",
"                              g w.w.w.:.&.&.&.&.&.#                                                                             ",
"                              . &.w.0.&.&.&.&.&.g                                                                               "
};
