/* XPM */
static char *_6f671bbd961415fe0778a55c9b4b5aaKtJMOWLek0fdCvbY[] = {
/* columns rows colors chars-per-pixel */
"64 64 126 2 ",
"   c #060201",
".  c #0B0401",
"X  c #120702",
"o  c #160902",
"O  c #1B0A03",
"+  c #230D03",
"@  c #280F04",
"#  c #2D1104",
"$  c #331304",
"%  c #3B1605",
"&  c #441A06",
"*  c #4E1E06",
"=  c #511F06",
"-  c #552107",
";  c #5F2407",
":  c #572108",
">  c #5D2308",
",  c #6E2A07",
"<  c #642608",
"1  c #672809",
"2  c #6C2908",
"3  c #6D2A08",
"4  c #6C2A09",
"5  c #6D2A09",
"6  c #6E2A08",
"7  c #6E2A09",
"8  c #6B2909",
"9  c #702A08",
"0  c #712B08",
"q  c #732B09",
"w  c #722C09",
"e  c #732C09",
"r  c #792E09",
"t  c #792E0A",
"y  c #7B2F0A",
"u  c #7C300A",
"i  c #7C300B",
"p  c #7E300A",
"a  c #7F300A",
"s  c #7F310A",
"d  c #80310A",
"f  c #81310A",
"g  c #82320A",
"h  c #82320B",
"j  c #83320B",
"k  c #84320B",
"l  c #86330A",
"z  c #87330A",
"x  c #86330B",
"c  c #84330A",
"v  c #88330A",
"b  c #88340A",
"n  c #89340A",
"m  c #89340B",
"M  c #8A340A",
"N  c #8A350A",
"B  c #8B350A",
"V  c #8B350B",
"C  c #8F3609",
"Z  c #8C360B",
"A  c #8F360A",
"S  c #8F360A",
"D  c #91370A",
"F  c #90370B",
"G  c #91370B",
"H  c #91370A",
"J  c #93380A",
"K  c #92380B",
"L  c #93380B",
"P  c #94390A",
"I  c #95390A",
"U  c #94390B",
"Y  c #93390C",
"T  c #94380A",
"R  c #993B0B",
"E  c #9A3B0B",
"W  c #9A3B0C",
"Q  c #9B3B0C",
"!  c #9C3C0C",
"~  c #A03D0B",
"^  c #A13D0B",
"/  c #A23E0B",
"(  c #A33E0B",
")  c #A23E0C",
"_  c #A73F0C",
"`  c #AA410B",
"'  c #AB410B",
"]  c #AC410B",
"[  c #AC420B",
"{  c #A8400C",
"}  c #A9400C",
"|  c #AA410C",
" . c #AB410C",
".. c #AA420C",
"X. c #AC420C",
"o. c #AB410C",
"O. c #B1430B",
"+. c #B0430C",
"@. c #B1430C",
"#. c #B2430C",
"$. c #B1440C",
"%. c #B2440C",
"&. c #B3440C",
"*. c #B3450D",
"=. c #B4440C",
"-. c #B5440C",
";. c #B4450D",
":. c #B4440C",
">. c #BB470B",
",. c #BC470B",
"<. c #BD470B",
"1. c #BA470C",
"2. c #BB470C",
"3. c #BC470C",
"4. c #BC470B",
"5. c #BE480B",
"6. c #BC480C",
"7. c #BD480C",
"8. c #BE480C",
"9. c #BE480C",
"0. c #C74B0B",
"q. c #C64B0C",
"w. c #C74B0C",
"e. c #C54C0D",
"r. c #C64C0D",
"t. c #C74B0B",
/* pixels */
"< < < < < < < &   < < < < < < < < o % < < < < < < < &   > < < < < < < < o % < < < < < < < & . < < < < < < < < o $ < < < < < < < ",
"0.0.0.0.0.0.0.H o >.0.0.0.0.0.0.0.# 2 0.0.0.0.0.0.0.H o <.0.0.0.0.0.0.q.# 0 0.0.0.0.0.0.0.B + 3.0.0.0.0.0.0.0.$ 8 0.0.0.0.0.0.0.",
"0.0.0.0.0.0.0.H o <.0.0.0.0.0.0.0.$ 2 0.0.0.0.0.0.0.H o <.0.0.0.0.0.0.q.# 9 0.0.0.0.0.0.0.H O 3.0.0.0.0.0.0.0.$ 8 0.0.0.0.0.0.0.",
"7.7.7.7.e.7.8.B o #.<.<.7.7.7.<.<.@ 8 q.<.<.3.e.e.<.B o -.<.<.q.<.3.<.8.# 2 7.>.3.<.e.<.<.M O 1.<.3.3.<.<.3.<.$ < <.<.3.8.8.8.<.",
"o o o o o O o X   o o o o o o o o   X o o o o o o o o   o o o o o o o o   . o o o o O o o X   o o o o o o o o   . o o o o o o o ",
"H H g   y H H H H B H H % % H H B H B H H g o y H B B H H B B * @ B H H B H H H v o 2 H H B H B H H * + H H B H H H H k X 8 H H ",
"0.0.=.  _ 0.0.0.0.0.0.0.= * 0.0.0.0.0.0.w.-.O X.0.0.0.0.0.0.0.< % w.0.0.0.0.0.0.<.O T 0.0.0.0.0.0.0., $ 0.0.0.0.0.0.0.>.o U 0.0.",
"0.0.=.  ] 0.0.0.0.0.0.0.* * 0.0.0.0.0.0.w.@.+ X.0.0.0.0.0.0.0.< % w.0.0.0.0.0.0.<.O T 0.0.0.0.0.0.0.2 $ 0.0.0.0.0.0.0.<.o U 0.0.",
"] ] !   U ' ] ] ] ] ' ] & & X.X.] ] ] ] ] ! o I ] X.] ] ] ] X.> # X.X.] _ ] ] ] ( O g ] X.] ] ] ] ' ; # ] ] ] ] ] ] ] ( o g ] ] ",
"O + O o O + O o . O + O o o O + + . o O + O o O O + o   O + O o o O O + . o + O O o O O O o . + O + o o O O + . X + O O o O O O ",
"&.&.#.X.&.&.@.g o _ @.@.@.@.&.&.X.@ < @.@.@.@.@.=.&.g o _ @.@.@.@.@.@.@.@ < @.@.@.&.=.&.@.f o _ &.&.:.] :.:.#.@ > #.#.#.#.&.=.&.",
"0.0.0.0.0.0.0.J o >.0.0.0.0.0.0.q.$ 2 0.0.0.0.0.0.0.H o <.0.0.0.0.0.0.q.$ 0 0.0.0.0.0.0.0.B + <.0.0.0.0.0.0.0.$ 8 0.0.0.0.0.0.0.",
"0.0.0.0.0.0.0.J o <.0.0.0.0.0.0.w.$ 2 0.0.0.0.q.0.0.J o 3.0.0.0.0.0.0.q.# 0 0.0.0.0.0.0.0.H O e.0.0.0.0.0.0.q.$ 8 0.0.0.0.0.0.0.",
"0 0 0 0 0 0 0 - . 2 0 0 0 0 0 0 0 o & 0 0 0 0 0 0 0 - . 2 0 0 0 0 0 0 0 o & 0 0 0 0 0 0 0 = X 2 0 0 0 0 0 0 0 O % 9 9 9 9 0 0 0 ",
"# # #   @ # # # # $ # # X X # # # $ # # # @   # # # # # # # $ o . # # # # # $ @ #   + # # # # # # # o . # # # # # $ # #   + # # ",
"q.e.&.  } q.q.q.q.0.q.e.= * q.q.q.q.q.q.q.&.O X.q.q.q.q.q.q.q.< % q.q.q.q.q.q.q.1.O U q.q.q.q.q.0.e., $ q.q.q.q.q.q.q.>.o U e.0.",
"0.0.=.  ' 0.0.0.0.0.0.0.= * q.0.0.0.0.0.0.@.+ _ 0.0.0.0.0.0.0.< $ q.t.t.0.0.0.0.,.+ T 0.0.0.0.0.0.0.2 $ 0.0.0.0.0.0.0.<.o T 0.0.",
"q.q.#.  ' q.w.q.q.0.q.w.= * q.q.w.w.w.q.w.@.+ _ w.0.w.w.w.w.w.< % q.t.t.q.q.0.0.,.O H 0.w.w.w.0.q.w.2 $ 0.0.0.0.q.0.w.<.o T w.w.",
"= = &   & = = = = = = * + O = = = * = = = & . & = * * = = = = @ o * = = = = = = & X % = = = = = = * # X = = = * = = = &   % = = ",
"* * = = * * * %   * * * * * = * * o @ = = * = = = * % . & = = = * * * * o @ = = * = * * * % . & * * - * * * * X @ * * = = * = * ",
"0.0.0.0.0.0.0.H o >.0.0.0.0.0.0.0.@ 9 0.0.0.0.0.0.0.H o <.0.0.0.t.t.t.q.@ 9 0.0.0.0.0.0.0.B + e.0.0.0.0.0.0.0.$ 8 0.0.0.0.0.0.0.",
"0.0.0.0.0.0.0.T o >.0.0.0.0.0.0.0.$ 9 0.0.0.0.0.0.0.H o <.0.0.0.t.t.t.q.$ q 0.0.0.0.0.0.0.H O 3.0.0.0.0.0.0.0.$ 8 0.0.0.0.0.0.0.",
"<.<.<.<.<.<.<.B o #.<.7.<.<.8.<.<.# 2 <.<.<.<.<.3.<.v o =.<.3.3.<.<.,.3.@ 2 <.<.<.<.<.<.3.v O =.<.7.<.<.<.7.7.$ < ,.q.<.<.<.<.<.",
"o o o o o o o X   o o o o o o o o   . o o o o o o o X   o o o o o o o o   . o o o o o o o X   o o o o o o o o   . o o o o o o o ",
"T H k   u H G H G H G G % % B J H H G G H j o i G H G G H G G * @ H T H G H G G M o 8 H G G H G H Y * + G H G H H H H v X 8 H H ",
"0.0.-.  ' 0.q.0.w.0.0.w.= * e.0.w.0.0.w.0.&.O X.w.w.0.w.0.0.w.< $ w.0.0.w.0.0.w.<.+ H q.0.q.0.0.q.w.2 $ w.0.w.0.0.0.0.<.o T 0.0.",
"0.0.-.  } 0.0.q.0.0.0.0.- * q.0.0.0.0.0.0.=.O } 0.0.0.0.0.0.w.< % w.0.0.0.0.0.0.7.O J 0.0.0.0.0.0.0.2 $ 0.0.0.0.0.0.0.<.o T 0.0.",
"] ] Q   T ] ] X.] ] ] ] & & } X.] ] ] ] ] ! o Y ] ] ] ] ] ] ] : $ _ _ ] #._ #._ ) O u } ] ] ] ] ] ] > # ] ] ] ] _ _ #.^ X g ] ] ",
"                                                                                                                                ",
"&.=.&.&.&.@.&.g o } &.&.X.&.&.&.=.@ < @.-.-.&.@.&.=.g o } =.&.=.@.=.=.@.@ 8 -.@.&.=.&.&.=.g O } =.&.X.&.@.@.=.# < &.=.&.X.@.&.=.",
"0.0.0.0.0.0.0.J o <.0.0.0.0.0.0.w.$ 2 0.w.0.0.0.w.0.H o 8.0.0.0.0.0.0.q.# 0 0.0.0.0.0.0.w.H + 8.0.0.0.0.0.0.q.$ 8 q.0.0.0.0.0.0.",
"0.0.0.0.0.0.0.J o 3.0.0.0.0.0.0.w.$ 0 w.0.0.0.0.0.0.H o 3.0.0.0.0.0.0.q.# 0 0.0.0.0.0.0.w.B O 8.0.0.0.0.0.0.q.$ 8 q.0.0.0.0.0.0.",
"b b b c b b b < X u b b b b b b M O & b b b k b k b < X u M b M k v k k + * k k k b k z z < o u b b b k b b b + & b b b b M b b ",
"# # #   @ # # # # # # # X X # # # $ $ # # #   # $ # # # $ # # o . $ $ # # $ # $ # . @ # # # # # # $ o . # # # # $ # # #   O # # ",
"q.q.&.  ..0.0.q.0.e.e.0.= * e.q.e.e.e.0.q.[ + ..0.q.0.q.e.e.0.< % e.q.q.q.q.0.0.<.O J 0.0.0.0.0.0.e., $ q.q.0.0.0.e.0.1.o U e.e.",
"0.0.:.  ' 0.0.0.0.0.0.0.= * q.0.0.0.0.0.0.&.O X.0.0.0.0.0.0.0.< $ q.0.0.0.0.0.0.7.O J 0.0.0.0.0.0.0., $ 0.0.0.0.0.0.0.>.o U 0.0.",
"0.0.:.  { 0.0.0.0.0.0.0.- = q.0.0.0.0.0.0.[ O [ 0.0.0.0.0.0.0.< % 0.0.0.0.0.0.0.7.O U 0.0.0.0.0.0.0.2 # 0.0.0.0.0.0.0.>.o U 0.0.",
"* * &   & * * * = * = * O O * * = * * * * & . & * * * * * * * # X * * * * * * * & . % = * * * * * * # X = = * = * * * *   % * = ",
"= = = = = = - % . & = = = = = = - X # - = = = = = = % . & - = * = = - = X # = = - * * - - % . * * - * = = = = X # * * * - * - * ",
"q.0.0.0.0.0.0.J o >.0.q.0.0.0.0.0.# , 0.0.0.0.0.0.0.C o <.0.0.0.0.q.0.e.# , 0.0.0.0.0.0.0.B O 8.0.0.0.0.0.0.q.# 2 0.0.0.0.0.0.0.",
"0.0.0.0.0.0.0.J o >.0.0.0.0.0.0.0.# , 0.0.0.0.0.0.0.H o <.0.0.0.0.0.0.0.# , 0.0.0.0.0.0.0.B + 8.0.0.0.0.0.0.0.$ 2 0.0.0.0.0.0.0.",
">.>.>.>.>.>.8.M o [ >.7.7.>.>.>.>.# 2 >.>.>.<.>.<.>.v o :.<.>.>.>.>.>.>.# 8 7.>.7.>.>.7.>.M O =.<.>.<.<.>.>.>.# < >.>.>.>.7.7.>.",
"# # # # # # # +   # # # # # # # # . o # # # # # # # O   # # # # # # # # . o # # # # # # # O   # # # # # # # # . o # # # # # # # ",
"r r 4   < r r r r r r r $ # y r y y y r y 2 o < r y y y r r r % O r r r r r r r 0 X > r r r r y r y & o r y r y r r r 0 . > r r ",
"0.0.&.  ..0.0.0.0.0.0.0.= * q.0.0.0.0.0.0.&.O } 0.0.0.0.0.0.0.< % e.0.0.0.0.0.0.>.O J 0.0.0.0.0.0.0.2 $ 0.0.0.0.0.0.0.>.o U 0.0.",
"0.0.=.  ' 0.0.0.0.0.0.0.= * q.0.0.0.0.0.0.@.O X.0.0.0.0.0.0.0.< % 0.0.0.0.0.0.0.7.O U 0.0.0.0.0.0.0.2 # 0.0.0.0.0.0.0.7.o U 0.0.",
"' ' R   J ..' ' ' { { { & & ' ' ' ' ' ' ' R O U ' ' ' ' ] ] _ > # { { ' ' ' ' ..( o u ] ' ' ' ' ' { ; # ' ' ' ' ' ' ' ! X u ' ' ",
"                                                                                                                                ",
"=.=.=.=.=.=.=.k o ' =.=.=.=.=.=.-.@ 8 -.@.-.-.-.-.-.g o _ =.=.=.-.-.-.-.@ < -.-.-.-.-.-.-.k O _ :.:.:.:.=.=.-.@ < =.-.-.-.-.-.-.",
"0.0.0.0.0.0.0.J o >.0.0.0.0.0.0.w.@ 0 q.0.0.0.0.0.0.H o ,.t.0.0.0.0.0.q.# 0 0.0.0.0.0.0.q.B + 3.0.0.0.0.0.0.q.$ 8 0.0.0.0.0.0.0.",
"0.e.0.0.0.0.e.J o 7.0.0.0.0.0.0.w.$ 0 q.0.0.0.0.0.0.H o ,.t.w.w.0.0.0.w.# q w.0.0.0.0.0.0.H O q.0.0.0.0.0.0.e.$ 8 0.0.0.0.0.0.0.",
"J C C C H H B 8 X k B H H H B H B + = H B H H B H B 8 X v G G G H B H B + = G G H B H B H < o v H B J B H B B @ * B H B H B H B ",
"o O o   X o o O o O o o     o o o O O o o X   o o o o o o O o .   O o O o o o o o   X o o o O O o o .   O O o O o o o o   X o o ",
"q.q.=.  } q.w.w.q.q.e.q.= = w.w.w.w.q.q.w.@.+ _ w.w.w.w.w.w.w.< $ w.q.q.q.q.w.w.3.O L w.w.w.w.w.w.w.2 # e.e.w.q.w.w.w.>.o T w.w.",
"q.0.=.  } 0.0.0.w.w.0.0.* * w.0.0.0.0.w.w.-.O X.w.0.0.0.w.0.0.< $ w.q.w.0.0.0.0.<.+ T w.0.0.0.0.0.0.2 $ 0.0.0.0.w.w.0.<.o U w.w.",
"0.0.=.  ] 0.0.0.0.0.0.0.- - w.0.0.0.0.w.w.@.+ X.0.0.0.0.w.w.0.8 % w.0.w.0.0.0.0.<.O T w.0.0.0.w.0.0.0 $ 0.0.0.0.0.w.0.<.o T 0.0.",
"= = &   & = - = = = = - + + = = = = = = = & X & = = = = = = = # o = = = = = = = * . % = = = = = = = @ o = = = = = = = =   & = = ",
"= : = = - = = % . * = = = = = = = X $ = = = = = = = % . = = = = = = = = o $ = = = = = = = &   * = = = = = = = o # = = = = = = = ",
"0.0.0.0.0.0.0.J o <.0.0.0.0.0.0.w.$ 0 0.w.0.0.0.0.0.H o 3.0.0.0.w.0.0.q.@ 0 0.0.0.0.0.0.0.B + q.0.0.0.0.0.0.q.$ 2 w.0.0.0.0.w.w.",
"0.0.0.0.0.0.q.J o <.0.0.0.0.0.0.w.# 0 w.0.0.0.0.0.0.H o <.0.0.0.w.0.0.w.$ q 0.0.0.0.0.0.0.H O 3.0.0.0.0.0.0.0.$ 2 w.0.0.0.0.0.0.",
"0.0.0.0.0.0.0.J o >.0.0.0.0.0.0.q.# 0 q.0.0.0.0.0.0.H o 1.0.0.0.0.0.0.q.# q 0.0.0.0.0.0.0.H O e.0.0.0.0.q.0.q.$ 2 0.0.0.0.w.0.0.",
"# @ @ # # # # O   @ # @ # @ @ # # . O @ # @ # @ # # +   # @ @ # @ # @ @ . o @ @ # # @ # @ O   @ # # @ # # @ @ . O @ # @ @ @ @ # ",
"r q 2   < 0 0 r 0 0 r 0 # # r 0 0 0 0 r q 8 X < 0 0 0 r r 0 0 % + 0 q r q r q q 2 X - q r 0 q q q q & O r 0 0 0 0 r q 2 X = r q ",
"0.0.-.  ' 0.q.w.w.w.0.0.= * q.q.0.0.q.0.q.@.O X.q.0.0.q.w.q.q.< % q.0.0.0.0.0.0.<.O U 0.0.q.0.0.0.0.9 $ 0.w.w.0.q.q.0.<.o I 0.0."
};
